<svg width="128" height="128" viewBox="0 0 128 128" fill="none" xmlns="http://www.w3.org/2000/svg">
<path d="M126.67 98.4399C122.11 99.5999 119.29 98.4899 116.76 94.6899C111.08 86.1799 104.81 78.0599 98.7598 69.7899C97.9798 68.7199 97.1698 67.6699 96.1598 66.3399C88.9998 75.9999 81.8498 85.1999 75.1398 94.7699C72.7398 98.1899 70.2198 99.6799 65.7398 98.4699L92.6598 62.3399L67.5998 29.7099C71.9098 28.8699 74.8898 29.2999 77.5298 33.1599C83.3598 41.6799 89.7898 49.7899 96.1998 58.3699C102.65 49.8199 109 41.6999 115 33.2599C117.41 29.8399 120 28.5399 124.33 29.7999C121.05 34.1499 117.84 38.4299 114.61 42.6799C110.25 48.4099 105.97 54.2099 101.45 59.8199C99.8398 61.8199 100.1 63.1199 101.54 65.0099C109.9 75.9999 118.16 87.0999 126.67 98.4399ZM1.3298 61.7399C2.0498 58.1299 2.5298 54.4499 3.5298 50.9099C9.5298 29.4799 34.1298 20.5699 51.0298 33.8499C60.9298 41.6399 63.3898 52.6199 62.8998 64.9999H7.0998C6.2598 87.2099 22.2498 100.62 42.6298 93.7799C49.7798 91.3799 53.9898 85.7799 56.0998 78.7799C57.1698 75.2699 58.9398 74.7199 62.2398 75.7199C60.5498 84.4799 56.7198 91.7999 48.7198 96.3799C36.7198 103.24 19.5898 101.02 10.5798 91.4899C5.2598 85.8899 2.9998 78.9199 1.9998 71.3899C1.8498 70.1899 1.5398 69.0099 1.2998 67.8199C1.3198 65.7932 1.3298 63.7666 1.3298 61.7399V61.7399ZM7.1998 60.2499H57.6298C57.2998 44.1899 47.2998 32.7799 33.6298 32.6799C18.6298 32.5599 7.8498 43.6999 7.1998 60.2499V60.2499Z" fill="black"/>
</svg>
