<svg width="128" height="128" viewBox="0 0 128 128" fill="none" xmlns="http://www.w3.org/2000/svg">
<path fill-rule="evenodd" clip-rule="evenodd" d="M11.1561 54.8291C10.9131 54.8291 10.8531 54.7071 10.9741 54.5261L12.2471 52.8891C12.3671 52.7071 12.6711 52.5861 12.9131 52.5861H34.5501C34.7931 52.5861 34.8531 52.7681 34.7321 52.9501L33.7021 54.5261C33.5811 54.7071 33.2781 54.8891 33.0961 54.8891L11.1561 54.8291ZM2.00409 60.4041C1.76209 60.4041 1.70109 60.2841 1.82209 60.1011L3.09509 58.4651C3.21609 58.2831 3.51909 58.1621 3.76209 58.1621H31.3981C31.6401 58.1621 31.7621 58.3441 31.7011 58.5261L31.2161 59.9801C31.1561 60.2231 30.9131 60.3441 30.6711 60.3441L2.00409 60.4041ZM16.6701 65.9801C16.4281 65.9801 16.3681 65.7981 16.4891 65.6161L17.3371 64.1011C17.4591 63.9191 17.7011 63.7381 17.9441 63.7381H30.0641C30.3071 63.7381 30.4281 63.9191 30.4281 64.1621L30.3081 65.6161C30.3081 65.8591 30.0651 66.0411 29.8831 66.0411L16.6701 65.9801ZM79.5801 53.7381C75.7611 54.7081 73.1551 55.4351 69.3981 56.4041C68.4881 56.6471 68.4281 56.7071 67.6401 55.7981C66.7311 54.7681 66.0641 54.1011 64.7921 53.4951C60.9731 51.6171 57.2761 52.1621 53.8221 54.4051C49.7011 57.0711 47.5801 61.0101 47.6401 65.9191C47.7001 70.7681 51.0341 74.7681 55.8221 75.4351C59.9431 75.9801 63.3981 74.5251 66.1251 71.4351C66.6701 70.7681 67.1551 70.0411 67.7611 69.1921H56.0641C54.7921 69.1921 54.4891 68.4041 54.9131 67.3741C55.7011 65.4951 57.1551 62.3441 58.0031 60.7681C58.1861 60.4041 58.6101 59.7981 59.5191 59.7981H81.5791C81.4591 61.4351 81.4591 63.0711 81.2161 64.7081C80.5491 69.0711 78.9131 73.0711 76.2461 76.5861C71.8821 82.3441 66.1861 85.9191 58.9731 86.8891C53.0341 87.6771 47.5191 86.5251 42.6711 82.8891C38.1861 79.4951 35.6411 75.0101 34.9741 69.4351C34.1861 62.8291 36.1251 56.8891 40.1251 51.6771C44.4281 46.0411 50.1251 42.4651 57.0951 41.1921C62.7921 40.1621 68.2461 40.8291 73.1551 44.1621C76.3671 46.2831 78.6701 49.1921 80.1851 52.7071C80.5491 53.2531 80.3071 53.5561 79.5791 53.7371L79.5801 53.7381Z" fill="#00ACD7"/>
<path d="M99.6403 87.2532C94.1253 87.1312 89.0943 85.5562 84.8523 81.9192C81.2763 78.8292 79.0343 74.8892 78.3073 70.2222C77.2163 63.3742 79.0943 57.3132 83.2163 51.9202C87.6403 46.1012 92.9733 43.0712 100.186 41.7982C106.367 40.7082 112.186 41.3142 117.458 44.8892C122.246 48.1622 125.215 52.5862 126.003 58.4042C127.033 66.5862 124.67 73.2532 119.033 78.9502C115.033 83.0102 110.124 85.5562 104.488 86.7072C102.852 87.0102 101.215 87.0712 99.6403 87.2532ZM114.064 62.7682C114.004 61.9802 114.004 61.3742 113.882 60.7682C112.792 54.7682 107.276 51.3742 101.519 52.7082C95.8823 53.9802 92.2463 57.5562 90.9133 63.2532C89.8223 67.9802 92.1253 72.7682 96.4883 74.7072C99.8223 76.1622 103.155 75.9802 106.367 74.3442C111.155 71.8592 113.761 67.9802 114.064 62.7682V62.7682Z" fill="#00ACD7"/>
</svg>
