<svg width="128" height="128" viewBox="0 0 128 128" fill="none" xmlns="http://www.w3.org/2000/svg">
<path d="M80.6002 40.3001H81.0002L80.8002 40.1001L94.8002 26.1001V25.8001C83.0002 15.4001 66.7002 11.8001 51.6002 16.3001C36.5002 20.8001 24.9002 32.8001 20.7002 48.0001C20.9002 47.9001 21.2002 47.8001 21.5002 47.8001C26.7002 44.4001 32.9002 42.4001 39.4002 42.4001C41.6002 42.4001 43.7002 42.6001 45.8002 43.0001C45.9002 42.9001 46.0002 42.9001 46.1002 42.9001C55.1002 33.0001 70.3002 31.8001 80.7002 40.3001H80.6002Z" fill="#EA4535"/>
<path d="M108.1 47.7999C105.8 39.2999 101 31.6 94.2998 25.7L79.9998 39.9C85.9998 44.8 89.4998 52.2 89.2998 59.9V62.4C106.2 62.4 106.2 87.5999 89.2998 87.5999H63.8998V107.6H63.7998L63.8998 107.8H89.2998C103.9 107.9 116.8 98.4999 121.1 84.6999C125.4 70.8999 120.1 55.9 108.1 47.7999V47.7999Z" fill="#557EBF"/>
<path d="M38.9999 107.9H65.2999V87.7001H38.9999C37.0999 87.7001 35.2999 87.3001 33.5999 86.6001L18.3999 101.2V101.4C24.3999 105.7 31.5999 108 39.0999 108L38.9999 107.9Z" fill="#36A852"/>
<path d="M40.1999 41.8999C25.2999 41.9999 12.0999 51.1999 7.29987 64.6999C2.49987 78.2999 7.29987 93.1999 19.0999 102L34.6999 87.0999C26.0999 83.3999 24.0999 72.5999 30.6999 66.2999C37.2999 59.8999 48.4999 61.8999 52.3999 70.0999L67.9999 55.1999C61.3999 46.8999 51.0999 41.9999 40.1999 42.0999V41.8999Z" fill="#F9BC15"/>
</svg>
