<svg width="130" height="128" viewBox="0 0 130 128" fill="none" xmlns="http://www.w3.org/2000/svg">
<path d="M76.4004 0.300049C75.5004 0.300049 74.6004 0.500049 73.8004 0.800049C75.5004 1.90005 76.4004 3.40005 76.9004 5.10005C76.9004 5.30005 77.0004 5.50005 77.0004 5.70005C77.0004 5.90005 77.1004 6.10005 77.1004 6.30005C77.2004 9.20005 76.3004 9.60005 75.7004 11.3C74.7004 13.5 75.0004 15.9 76.2004 17.8C76.3004 18 76.4004 18.3 76.6004 18.5C75.3004 10.1 82.3004 8.90005 83.6004 6.30005C83.7004 4.00005 81.8004 2.50005 80.3004 1.40005C78.8004 0.500049 77.6004 0.300049 76.4004 0.300049ZM86.9004 2.10005C86.8004 2.90005 86.9004 2.70005 86.8004 3.10005C86.8004 3.40005 86.8004 3.70005 86.7004 4.00005C86.6004 4.30005 86.6004 4.50005 86.5004 4.80005C86.4004 5.10005 86.3004 5.30005 86.2004 5.60005C86.1004 5.80005 86.0004 6.00005 85.9004 6.30005C85.8004 6.40005 85.7004 6.60005 85.6004 6.70005C85.5004 6.80005 85.5004 6.90005 85.4004 7.00005C85.2004 7.20005 85.1004 7.50005 84.9004 7.70005L84.3004 8.30005C84.1004 8.50005 83.9004 8.70005 83.7004 8.80005C83.0004 9.30005 82.2004 9.70005 81.5004 10.2C81.3004 10.4 81.0004 10.5 80.8004 10.7C80.6004 10.9 80.4004 11 80.2004 11.2L79.6004 11.8C79.4004 12 79.2004 12.2 79.1004 12.5C78.9004 12.7 78.8004 13 78.6004 13.2C78.5004 13.5 78.4004 13.7 78.2004 14C78.1004 14.3 78.0004 14.5 77.9004 14.8C77.8004 15.1 77.7004 15.4 77.7004 15.6C77.7004 15.7 77.7004 15.9 77.6004 16C77.6004 16.1 77.6004 16.3 77.5004 16.4V17.8C77.5004 18.1 77.5004 18.3 77.6004 18.6C77.6004 18.9 77.7004 19.1 77.8004 19.4C77.9004 19.7 78.0004 19.9001 78.1004 20.2001C78.2004 20.4001 78.3004 20.5001 78.3004 20.7001L70.7004 17.8C69.4004 17.4 68.2004 17.1 66.9004 16.8C66.2004 16.6 65.5004 16.5 64.8004 16.3C62.8004 15.9 60.8004 15.6 58.8004 15.4H58.6004C56.6004 15.2 54.7004 15.1 52.7004 15.1C51.2004 15.1 49.8004 15.2 48.4004 15.3C46.4004 15.4 44.4004 15.7 42.4004 16L40.9004 16.3C39.9004 16.5 38.9004 16.7 37.9004 17C37.4004 17.1 36.9004 17.3 36.4004 17.4C35.9004 17.6 35.4004 17.8 35.0004 18C34.6004 18.2 34.3004 18.3 33.9004 18.5C33.8004 18.5 33.8004 18.5 33.7004 18.6C33.4004 18.8 33.1004 18.9 32.8004 19.1C32.7004 19.1 32.6004 19.2001 32.6004 19.2001C32.2004 19.4001 31.9004 19.6001 31.6004 19.7001C31.4004 19.8001 31.1004 19.9 30.9004 20C30.8004 20.1 30.7004 20.1001 30.6004 20.2001C30.3004 20.4001 30.0004 20.5001 29.7004 20.7001C29.4004 20.9001 29.1004 21.0001 28.9004 21.2001C28.7004 21.4001 28.4004 21.5001 28.2004 21.7001C28.2004 21.7001 28.1004 21.7 28.1004 21.8C27.9004 21.9 27.7004 22.1 27.5004 22.3L27.4004 22.4C27.2004 22.5 27.1004 22.7 26.9004 22.8C26.8004 22.8 26.8004 22.9 26.7004 22.9C26.5004 23 26.4004 23.2 26.2004 23.3C26.2004 23.4 26.1004 23.4 26.1004 23.4L25.5004 24L25.4004 24.1L24.8004 24.7001C24.8004 24.7001 24.8004 24.8 24.7004 24.8L24.2004 25.3C24.1004 25.4 24.0004 25.4 24.0004 25.5L23.4004 26.1C23.4004 26.2 23.3004 26.2 23.3004 26.3L22.5004 27.1L22.4004 27.2001C21.9004 27.8001 21.3004 28.3 20.7004 28.8C20.1004 29.3 19.5004 29.8 18.8004 30.3C18.1004 30.8 17.5004 31.2 16.8004 31.6C16.1004 32 15.4004 32.3 14.7004 32.6C14.0004 32.9 13.3004 33.2001 12.6004 33.4001C11.2004 33.7001 9.80039 34.3001 8.60039 34.4001C8.60039 33.9001 8.30039 34 8.00039 34C7.70039 34.1 7.40039 34.1001 7.20039 34.2001C6.90039 34.3001 6.70039 34.4 6.40039 34.5C6.10039 34.6 5.90039 34.7001 5.60039 34.9001C5.40039 35.1001 5.10039 35.2001 4.90039 35.4001C4.70039 35.6001 4.40039 35.8 4.20039 36C4.00039 36.2 3.70039 36.4 3.50039 36.6C3.30039 36.8 3.10039 37 2.90039 37.3C2.70039 37.6 2.50039 37.8 2.40039 38.1C2.20039 38.3 2.10039 38.6001 1.90039 38.9001C1.80039 39.2001 1.60039 39.5 1.50039 39.8L1.20039 40.7001C1.10039 41.0001 1.10039 41.2 1.00039 41.5V41.6C0.900391 41.9 0.900391 42.3 0.900391 42.5C1.00039 42.4 1.00039 42.6 1.00039 42.8V43.2001C1.00039 43.4001 1.10039 43.6 1.10039 43.8C1.20039 44 1.20039 44.2001 1.30039 44.4001C1.40039 44.6001 1.50039 44.8 1.70039 45C1.80039 45.2 2.00039 45.4 2.10039 45.6C2.30039 45.8 2.50039 46 2.70039 46.1C2.90039 46.3 3.10039 46.5 3.30039 46.6C4.10039 47.3 4.30039 47.5 5.30039 48.1C5.50039 48.2 5.60039 48.3001 5.80039 48.4001H5.90039V48.6C5.90039 48.9 6.00039 49.1001 6.10039 49.4001C6.20039 49.7001 6.30039 50.0001 6.40039 50.2001L6.70039 50.8C6.70039 50.9 6.80039 50.9 6.80039 51C6.90039 51.3 7.10039 51.5001 7.20039 51.7001C7.40039 51.9001 7.50039 52.2001 7.70039 52.4001L8.30039 53L8.90039 53.6H9.00039C9.20039 53.8 9.40039 53.9 9.60039 54.1C9.80039 54.3 10.1004 54.4 10.3004 54.5C10.5004 54.6 10.8004 54.8001 11.1004 54.9001C11.3004 55.0001 11.5004 55.1 11.8004 55.1C11.8004 55.1 11.9004 55.1001 11.9004 55.2001C12.0004 55.2001 12.2004 55.3 12.3004 55.3C12.2004 57.1 12.2004 58.8001 12.4004 59.4001C12.7004 60.1001 14.2004 58.0001 15.6004 55.7001C15.4004 58.0001 15.3004 60.7 15.6004 61.5C16.0004 62.3 17.9004 59.7001 19.7004 56.9001C43.1004 51.5001 64.5004 67.7 66.8004 90.6C66.4004 87 62.0004 85 59.9004 85.5C58.9004 87.9 57.2004 91.1 54.5004 93C54.7004 90.8 54.6004 88.6 54.2004 86.4C53.5004 89.4 52.1004 92.3 50.1004 94.7C47.0004 94.9 43.8004 93.4 42.2004 91.1C42.1004 91 42.0004 90.8 41.9004 90.7C41.8004 90.5 41.7004 90.2 41.6004 90C41.5004 89.8 41.4004 89.5 41.4004 89.3V88.6V88.1C41.4004 87.9 41.5004 87.6 41.6004 87.4C41.7004 87.2 41.7004 86.9 41.8004 86.7C41.9004 86.5 42.0004 86.2 42.2004 86C42.8004 84.4 42.8004 83.1 41.7004 82.4L41.1004 82.1C41.0004 82.1 40.8004 82 40.7004 82C40.6004 82 40.5004 81.9 40.4004 81.9C40.2004 81.8 39.9004 81.8 39.7004 81.7C39.5004 81.6 39.2004 81.6 39.0004 81.6C38.8004 81.6 38.5004 81.5 38.3004 81.5H37.8004C37.5004 81.5 37.3004 81.5 37.1004 81.6C36.9004 81.6 36.6004 81.7 36.4004 81.7C36.2004 81.8 35.9004 81.8 35.7004 81.9C35.5004 82 35.3004 82.1 35.0004 82.2L34.4004 82.5C26.7004 87.5 31.3004 99.3 36.5004 102.7C34.5004 103.1 32.5004 103.5 31.9004 103.9L31.8004 104C33.2004 104.9 34.7004 105.6 36.3004 106.2C38.4004 106.9 40.7004 107.5 41.7004 107.8C44.4004 108.4 47.2004 108.6 50.0004 108.4C64.6004 107.4 76.6004 96.2 78.8004 81.6C78.9004 81.9 78.9004 82.2 79.0004 82.5C79.1004 83.1 79.2004 83.7 79.3004 84.4C79.4004 84.7 79.4004 85 79.4004 85.3V85.4C79.4004 85.7 79.5004 86 79.5004 86.3C79.5004 86.7 79.6004 87 79.6004 87.4V91.6C79.6004 91.9 79.5004 92.1 79.5004 92.4V92.7C79.5004 93 79.4004 93.3 79.4004 93.7C79.3004 94 79.3004 94.3 79.2004 94.6V94.7C79.1004 95 79.1004 95.3 79.0004 95.6V95.7C78.9004 96 78.9004 96.3 78.8004 96.6V96.7L78.5004 97.6V97.7C78.4004 98 78.3004 98.4 78.2004 98.7C78.1004 99 78.0004 99.3 77.8004 99.7C77.7004 100 77.6004 100.4 77.4004 100.7C77.3004 101 77.1004 101.3 77.0004 101.7C76.9004 102 76.7004 102.3 76.6004 102.6C76.6004 102.7 76.5004 102.8 76.5004 102.8C76.5004 102.8 76.5004 102.9 76.4004 102.9C74.3004 107.2 71.1004 111 67.1004 114C66.8004 114.2 66.6004 114.4 66.3004 114.6C66.2004 114.7 66.1004 114.7 66.1004 114.8C65.9004 115 65.6004 115.1 65.4004 115.3L65.5004 115.5C66.0004 115.4 66.4004 115.4 66.9004 115.3C67.8004 115.2 68.6004 115 69.5004 114.8C69.7004 114.8 70.0004 114.7 70.2004 114.6C70.4004 114.6 70.5004 114.5 70.7004 114.5C70.9004 114.5 71.2004 114.4 71.4004 114.4C71.6004 114.3 71.8004 114.3 72.0004 114.2C75.3004 113.4 78.5004 112.3 81.6004 111C76.3004 118.2 69.3004 124 61.1004 127.8C64.9004 127.5 68.7004 126.9 72.4004 125.8C85.7004 121.9 96.9004 112.9 103.6 100.8C102.2 108.4 99.2004 115.7 94.7004 122.1C97.9004 120 100.8 117.5 103.5 114.8C110.9 107.1 115.8 97.2 117.4 86.7C118.5 91.9 118.9 97.3 118.4 102.6C142.3 69.3 120.4 34.8001 111.2 25.7001C111.2 25.6001 111.1 25.6 111.1 25.5C111.1 25.9 111.1 26.3001 111 26.7001C110.9 27.5001 110.8 28.2 110.7 28.9C110.5 29.6 110.3 30.4 110.1 31.1C109.9 31.8 109.6 32.5001 109.3 33.2001C109 33.9001 108.7 34.6001 108.3 35.2001C107.9 35.8001 107.5 36.5 107.1 37.1C106.7 37.7 106.2 38.3001 105.7 38.9001C105.2 39.5001 104.7 40 104.1 40.6C103.8 40.9 103.5 41.2001 103.1 41.4001C102.8 41.6001 102.6 41.8 102.3 42.1C101.7 42.6 101.1 43.0001 100.4 43.4001C99.8004 43.8001 99.1004 44.2 98.4004 44.5L96.3004 45.4001C95.6004 45.7001 94.9004 45.9 94.2004 46.1C93.5004 46.3 92.7004 46.5 92.0004 46.6C91.2004 46.7 90.5004 46.8001 89.8004 46.9001C89.3004 46.9001 88.7004 47 88.2004 47C87.4004 47 86.7004 46.9001 86.0004 46.9001C85.2004 46.8001 84.5004 46.7 83.8004 46.6C83.0004 46.5 82.3004 46.3 81.6004 46C82.3004 45.9 83.1004 45.9001 83.8004 45.7001C84.6004 45.6001 85.3004 45.4001 86.0004 45.2001C86.7004 45.0001 87.5004 44.8 88.1004 44.5L90.2004 43.6C90.9004 43.3 91.5004 42.9 92.2004 42.5C92.8004 42.1 93.5004 41.6001 94.1004 41.2001C94.7004 40.7001 95.3004 40.2001 95.8004 39.7001C96.4004 39.2001 96.9004 38.6 97.4004 38.1C97.9004 37.5 98.4004 36.9 98.8004 36.3C98.9004 36.2 98.9004 36.1 99.0004 36C99.3004 35.5 99.7004 34.9001 100 34.4001C100.4 33.7001 100.7 33.1001 101 32.4001C101.3 31.7001 101.6 31 101.8 30.3L102.4 28.2001C102.5 27.4001 102.7 26.7 102.7 26C102.8 25.2 102.8 24.5 102.8 23.8C102.8 23.3 102.8 22.7001 102.7 22.2001C102.6 21.4001 102.5 20.7 102.4 20C102.3 19.2 102.1 18.5 101.9 17.8C101.7 17.1 101.4 16.4 101.2 15.7C100.9 15 100.6 14.3 100.3 13.7C99.9004 13 99.6004 12.4 99.2004 11.7C98.8004 11.1 98.3004 10.5 97.9004 9.90005C97.4004 9.30005 96.9004 8.80005 96.4004 8.20005C96.1004 7.90005 95.8004 7.60005 95.5004 7.40005C94.0004 6.20005 92.5004 5.20005 90.9004 4.20005C90.7004 4.10005 90.5004 4.00005 90.2004 3.90005C88.9004 2.80005 87.9004 2.50005 86.9004 2.10005V2.10005Z" fill="#DF234F"/>
</svg>
