<svg width="114" height="139" viewBox="0 0 114 139" fill="none" xmlns="http://www.w3.org/2000/svg">
<path fill-rule="evenodd" clip-rule="evenodd" d="M102.655 110.103L40.8421 128.531C40.4114 128.662 39.9543 128.679 39.5152 128.58C39.0762 128.481 38.6704 128.27 38.3373 127.967C38.0042 127.664 37.7553 127.281 37.6149 126.853C37.4744 126.426 37.4473 125.969 37.5361 125.528L59.6225 18.9071C59.7159 18.4716 59.9434 18.0763 60.2731 17.7767C60.6028 17.4772 61.018 17.2884 61.4604 17.237C61.9029 17.1856 62.3504 17.2741 62.7399 17.4901C63.1295 17.7061 63.4416 18.0387 63.6324 18.4412L104.519 105.979C104.702 106.368 104.799 106.793 104.802 107.223C104.806 107.653 104.716 108.079 104.539 108.471C104.361 108.863 104.101 109.212 103.776 109.494C103.451 109.775 103.069 109.983 102.655 110.103ZM113.257 105.751L65.9272 4.39432C65.3455 3.14417 64.4341 2.07616 63.2909 1.30505C62.1478 0.533945 60.8162 0.0888794 59.4391 0.0176775C58.0619 -0.0770416 56.6854 0.210193 55.461 0.84774C54.2366 1.48529 53.212 2.44841 52.4999 3.63101L1.17477 87.491C0.391826 88.7604 -0.0153481 90.2257 0.00044244 91.717C0.016233 93.2083 0.454342 94.6647 1.26399 95.9172L26.364 135.119C27.3098 136.584 28.7047 137.703 30.3399 138.309C31.9751 138.914 33.7625 138.974 35.4345 138.479L108.296 116.755C109.396 116.434 110.414 115.879 111.279 115.127C112.145 114.375 112.837 113.445 113.308 112.4C113.779 111.355 114.018 110.221 114.008 109.074C113.999 107.928 113.741 106.798 113.252 105.761L113.257 105.751Z" fill="#0C344B"/>
</svg>
