<svg width="128" height="128" viewBox="0 0 128 128" fill="none" xmlns="http://www.w3.org/2000/svg">
<path d="M3.65591 45.0431C3.65591 45.0431 0.628909 42.8521 4.26591 39.9301L12.7339 32.3361C12.7339 32.3361 15.1599 29.7771 17.7229 32.0081L95.8979 91.3361V119.786C95.8979 119.786 95.8589 124.254 90.1409 123.762L3.65591 45.0431Z" fill="#2489CA"/>
<path d="M23.8088 63.3789L3.65584 81.7419C3.65584 81.7419 1.58584 83.2849 3.65584 86.0469L13.0118 94.5739C13.0118 94.5739 15.2338 96.9689 18.5198 94.2459L39.8788 78.0079L23.8088 63.3789Z" fill="#1070B3"/>
<path d="M59.1839 63.5309L96.1369 35.2459L95.8979 6.94893C95.8979 6.94893 94.3199 0.772934 89.0549 3.98993L39.8789 48.8509L59.1839 63.5309Z" fill="#0877B9"/>
<path d="M90.1397 123.797C92.2847 126 94.8867 125.277 94.8867 125.277L123.684 111.055C127.371 108.535 126.855 105.41 126.855 105.41V20.4649C126.855 16.7299 123.043 15.4409 123.043 15.4409L98.0817 3.37994C92.6287 0.000936508 89.0547 3.98994 89.0547 3.98994C89.0547 3.98994 93.6477 0.672936 95.8977 6.94994V119.267C95.8977 120.04 95.7337 120.797 95.4057 121.481C94.7497 122.813 93.3197 124.051 89.9017 123.532L90.1397 123.797Z" fill="#3C99D4"/>
</svg>
